PathFileType	4	(X/Y/Z)	Patient4_TMGait_0pt6_02_right_38.trc.trc
DataRate	CameraRate	NumFrames	NumMarkers	Units	OrigDataRate	OrigDataStartFrame	OrigNumFrames
79.096045197740	79.096045197740	4	33	mm	79.096045197740	53	       141
Frame#	Time	Sacral			L.Shoulder			Chest			R.Shoulder			Neck			R.ASIS			L.ASIS			R.Thigh.Superior			R.Thigh.Lateral			R.Thigh.Inferior			R.Patella			L.Thigh.Superior			L.Thigh.Lateral			L.Thigh.Inferior			L.Patella			L.Shank.Superior			L.Shank.Lateral			L.Shank.Inferior			R.Shank.Superior			R.Shank.Lateral			R.Shank.Inferior			R.Heel			R.Midfoot.Superior			R.Midfoot.Lateral			R.Toe			L.Heel			L.Midfoot.Lateral			L.Midfoot.Superior			L.Toe			L.Elbow			L.Wrist			R.Elbow			R.Wrist			
		X1	Y1	Z1	X2	Y2	Z2	X3	Y3	Z3	X4	Y4	Z4	X5	Y5	Z5	X6	Y6	Z6	X7	Y7	Z7	X8	Y8	Z8	X9	Y9	Z9	X10	Y10	Z10	X11	Y11	Z11	X12	Y12	Z12	X13	Y13	Z13	X14	Y14	Z14	X15	Y15	Z15	X16	Y16	Z16	X17	Y17	Z17	X18	Y18	Z18	X19	Y19	Z19	X20	Y20	Z20	X21	Y21	Z21	X22	Y22	Z22	X23	Y23	Z23	X24	Y24	Z24	X25	Y25	Z25	X26	Y26	Z26	X27	Y27	Z27	X28	Y28	Z28	X29	Y29	Z29	X30	Y30	Z30	X31	Y31	Z31	X32	Y32	Z32	X33	Y33	Z33	

53	46.417428571429	820.420172588067	1013.988309081732	540.057092561124	1021.790932659674	1447.474112891096	389.137303989277	1124.733093768920	1353.246457774013	536.311321398091	1058.461776652067	1421.956490129456	719.369052001396	1041.280987912437	1493.667756981917	542.771727538463	1044.383132376009	941.413344579730	654.846088151162	1028.869320549082	967.497824832618	380.239059595694	1076.167007676759	742.583907158270	626.149866949724	989.073272308493	635.848119868006	681.523759536530	1068.955947039547	583.408069522354	606.054696720799	1064.798079666975	495.938290830036	612.553184462414	1111.206020245824	795.323306656520	398.176910957726	1075.757103917475	670.114378571652	310.712002665188	1183.315910121571	614.767405942725	370.089720114755	1211.683518359153	538.914881602904	357.051946027431	1177.558376348324	462.805976599709	346.847249011651	1076.842351819759	356.798954877608	297.253653704184	1136.380728238023	237.084606719203	345.263269292284	1036.679605987576	406.896728130654	613.989937460241	957.946058464257	301.847283194700	663.604077025065	1009.676957448631	208.999747926677	603.305540635032	882.903426173630	41.980857357386	555.144479049419	1052.135725408216	99.508692894411	600.411061841447	963.190448567846	36.154609782599	633.964709152387	1170.944847934742	49.488279486928	630.138603449421	1012.989067020544	75.653915154067	383.447335716713	1077.253247662784	79.417502806358	295.756940041586	1163.179237239831	140.217894093737	315.860086667284	1285.149560856601	92.393360514623	268.773189653576	891.043622808905	1126.975998253943	258.300889631764	1068.875643892682	938.913094695320	246.174882490368	1069.761701453929	1072.612200295375	832.805037468651	1272.319111540876	924.945375484020	768.953821584038	
54	46.430071428571	818.931036843407	1014.231398301817	540.757993732798	1020.384114099634	1447.758232624975	390.291385203265	1123.588411903286	1353.089677368810	536.972398351668	1057.788455577504	1421.314098622968	720.389063413355	1040.346438039187	1493.581945223877	544.013871408937	1042.989907279080	941.421368558011	655.055807302467	1027.214288161153	967.506707029114	380.446955065734	1073.284735844603	742.062480261951	626.344279977307	985.328384066112	635.768870187083	681.803866331236	1064.682402990858	582.757273480849	606.371077282734	1059.858226643639	495.368200306105	612.758893204028	1108.861185693677	795.314491089947	398.252629098057	1073.284052837099	669.915376309462	310.763539078654	1180.948394688585	614.872185695859	370.009760887189	1210.239124462638	540.937816299616	357.668406919737	1179.673720857374	465.085685605270	347.185425824829	1085.401551946858	354.472461045851	295.500337318175	1150.260979100683	237.572809834498	343.984621167323	1031.192667307053	406.517577809235	614.101664630760	951.839151339260	301.883848579119	663.679979468771	1002.974982914973	208.779074460057	603.289626375694	875.296395298401	42.053648144750	555.158050688299	1044.652829641060	99.403296260695	600.431322626191	955.581468901447	36.187669336111	633.936289496066	1163.348370764256	49.196655267180	630.181883026436	1034.236268517111	70.920538294395	379.759195299140	1100.210860201718	76.941422611640	293.432553279853	1183.136079235009	141.169925482188	314.992862039055	1307.865055451846	98.035957291680	270.808222789707	886.816579037566	1128.395036539870	259.485625131213	1058.628851701638	934.582591644871	244.461612086705	1072.215821450809	1071.773807110048	832.212698823592	1277.906578847139	931.082283740858	764.007808432564	
55	46.442714285714	817.523429257003	1014.580183028025	541.308080026568	1019.129661597002	1448.093021815155	391.271209011502	1122.540551990798	1352.989317086129	537.496928658022	1057.148149598510	1420.746269124777	721.207592360672	1039.486773346928	1493.551769664903	545.082457536510	1041.635171757379	941.498838372642	655.150049302922	1025.699185794954	967.554909741964	380.550551363450	1070.289518324847	741.506497881213	626.596644518697	981.336644201151	635.731198952597	681.982363684261	1060.162864069660	582.105552383250	606.631790153937	1054.620078407649	494.835226225642	612.888613700998	1106.452772715038	795.088766979555	398.191245981963	1070.398486829188	669.489754088820	310.790115480999	1178.240085671150	614.611879464051	369.712865114867	1208.253829653983	542.615786219068	358.305765960123	1181.178478404854	467.244210487687	347.648880146524	1093.468077434047	352.415440913985	293.959546565159	1163.339340835342	238.586812367498	343.082797391747	1025.478514849757	406.200903598064	614.168360883540	945.517383921612	301.963341977468	663.696770724291	996.145509079863	208.613664268496	603.272755723780	867.674868454134	42.124544216907	555.176298116714	1037.140996283553	99.326714649934	600.462626139451	947.956839772523	36.215725247167	633.906614027511	1155.731710969842	48.953477740221	630.230982491180	1054.639907486901	67.338451760504	376.575213008775	1122.368347233548	75.335929396283	291.710318088467	1202.245449273751	142.739388483867	314.658892735612	1329.482956653127	104.073361270103	273.692280871958	882.868354330976	1129.918577094244	260.370625505987	1048.601783372163	930.656023465936	242.535824019239	1074.373029339789	1071.030099660986	831.344382333548	1282.777742914932	937.217357851444	758.834288068786	
56	46.455357142857	816.211252524413	1015.011770127774	541.704740881650	1018.025963983559	1448.457885538064	392.065158830721	1121.584910384589	1352.944723320618	537.890092118655	1056.523439714050	1420.268932450964	721.824371689164	1038.691929291964	1493.571708354929	545.962305229755	1040.328434765078	941.624519456659	655.136473939669	1024.323982644077	967.640520784561	380.568195379683	1067.202904994303	740.923164541723	626.867879123454	977.145928240322	635.733206056441	682.051528673851	1055.436278964892	581.458821037751	606.819714562016	1049.128212759207	494.340019614477	612.933482099934	1104.031582113054	794.670327990171	398.023499392762	1067.225845856060	668.878443729834	310.789801227687	1175.287014758130	614.030564035577	369.262816943135	1205.836774103791	543.955327792122	358.949372947963	1182.102388779533	469.252732706112	348.189270990988	1100.876995414996	350.619207836643	292.728217972003	1175.451918425042	240.035493586902	342.556898271502	1019.567897449906	405.939405203920	614.177815070280	939.014869312911	302.085793132591	663.651365625979	989.209057321467	208.495983409037	603.245682286919	860.042765101122	42.192202044298	555.198651294171	1029.604799105673	99.276918095372	600.500900152435	940.319013657413	36.239696471288	633.874502877952	1148.099035023539	48.756640506377	630.282512999977	1073.940799687518	64.794732682173	374.074451719115	1143.347204456831	74.489560447662	290.655122654904	1220.211838161380	144.819375825621	314.793836737068	1349.666488132299	110.365307473582	277.123246321037	879.201823965020	1131.520939783697	260.959155166193	1038.883964462237	927.155178772140	240.423772044829	1076.227295830660	1070.397854143037	830.231851020483	1286.932415832197	943.333353222629	753.459068860206	
